<mxfile host="app.diagrams.net" modified="2022-07-05T06:01:33.100Z" agent="5.0 (X11; Linux x86_64) AppleWebKit/537.36 (KHTML, like Gecko) Chrome/103.0.0.0 Safari/537.36" etag="21FlOkUQWZPRgQ2TYxL6" version="20.0.4" type="github">
  <diagram id="hOhBumZC9-CvxR034xT6" name="Page-1">
    <mxGraphModel dx="1350" dy="802" grid="1" gridSize="10" guides="1" tooltips="1" connect="1" arrows="1" fold="1" page="1" pageScale="1" pageWidth="850" pageHeight="1100" math="0" shadow="0">
      <root>
        <mxCell id="0" />
        <mxCell id="1" parent="0" />
        <mxCell id="nI_rh2UEM4SlCN1rD2Qn-8" value="&lt;span data-json=&quot;%7B%22type%22%3A%22text%22%2C%22data%22%3A%5B%7B%22type%22%3A1%2C%22style%22%3A%7B%7D%2C%22text%22%3A%22Replay%20Head%22%7D%5D%7D&quot; class=&quot;mm-editor-clipboard&quot;&gt;&lt;b&gt;&lt;font style=&quot;font-size: 16px;&quot;&gt;Replay Head&lt;br&gt;Total : 1028 Bytes&lt;br&gt;&lt;/font&gt;&lt;/b&gt;&lt;/span&gt;" style="text;html=1;strokeColor=none;fillColor=none;align=center;verticalAlign=middle;whiteSpace=wrap;rounded=0;" vertex="1" parent="1">
          <mxGeometry x="130" y="110" width="145" height="30" as="geometry" />
        </mxCell>
        <mxCell id="nI_rh2UEM4SlCN1rD2Qn-14" value="&lt;span style=&quot;font-size: 12px;&quot;&gt;version&lt;/span&gt;" style="rounded=0;whiteSpace=wrap;html=1;fontSize=16;" vertex="1" parent="1">
          <mxGeometry x="130" y="180" width="90" height="30" as="geometry" />
        </mxCell>
        <mxCell id="nI_rh2UEM4SlCN1rD2Qn-15" value="&lt;span style=&quot;font-size: 12px;&quot;&gt;odr filename&lt;/span&gt;" style="rounded=0;whiteSpace=wrap;html=1;fontSize=16;" vertex="1" parent="1">
          <mxGeometry x="130" y="210" width="90" height="90" as="geometry" />
        </mxCell>
        <mxCell id="nI_rh2UEM4SlCN1rD2Qn-16" value="&lt;span style=&quot;font-size: 12px;&quot;&gt;odr filename&lt;/span&gt;" style="rounded=0;whiteSpace=wrap;html=1;fontSize=16;" vertex="1" parent="1">
          <mxGeometry x="130" y="300" width="90" height="90" as="geometry" />
        </mxCell>
        <mxCell id="nI_rh2UEM4SlCN1rD2Qn-2" value="4 Bytes" style="rounded=0;whiteSpace=wrap;html=1;fillColor=#ffe6cc;strokeColor=#d79b00;" vertex="1" parent="1">
          <mxGeometry x="210" y="180" width="60" height="30" as="geometry" />
        </mxCell>
        <mxCell id="nI_rh2UEM4SlCN1rD2Qn-3" value="512 Bytes" style="rounded=0;whiteSpace=wrap;html=1;fillColor=#d5e8d4;strokeColor=#82b366;" vertex="1" parent="1">
          <mxGeometry x="210" y="210" width="60" height="90" as="geometry" />
        </mxCell>
        <mxCell id="nI_rh2UEM4SlCN1rD2Qn-5" value="512 Bytes" style="rounded=0;whiteSpace=wrap;html=1;fillColor=#e1d5e7;strokeColor=#9673a6;" vertex="1" parent="1">
          <mxGeometry x="210" y="300" width="60" height="90" as="geometry" />
        </mxCell>
        <mxCell id="nI_rh2UEM4SlCN1rD2Qn-17" value="&lt;span style=&quot;font-size: 12px;&quot;&gt;obj info&lt;/span&gt;" style="rounded=0;whiteSpace=wrap;html=1;fontSize=16;" vertex="1" parent="1">
          <mxGeometry x="370" y="180" width="90" height="310" as="geometry" />
        </mxCell>
        <mxCell id="nI_rh2UEM4SlCN1rD2Qn-19" value="&lt;span style=&quot;font-size: 12px;&quot;&gt;obj pos&lt;/span&gt;" style="rounded=0;whiteSpace=wrap;html=1;fontSize=16;" vertex="1" parent="1">
          <mxGeometry x="370" y="490" width="90" height="220" as="geometry" />
        </mxCell>
        <mxCell id="nI_rh2UEM4SlCN1rD2Qn-21" value="&lt;span style=&quot;font-size: 12px;&quot;&gt;id 4Bytes&lt;/span&gt;" style="rounded=0;whiteSpace=wrap;html=1;fontSize=16;" vertex="1" parent="1">
          <mxGeometry x="570" y="180" width="150" height="20" as="geometry" />
        </mxCell>
        <mxCell id="nI_rh2UEM4SlCN1rD2Qn-23" value="&lt;span style=&quot;font-size: 12px;&quot;&gt;model id 4Bytes&lt;/span&gt;" style="rounded=0;whiteSpace=wrap;html=1;fontSize=16;" vertex="1" parent="1">
          <mxGeometry x="570" y="200" width="150" height="20" as="geometry" />
        </mxCell>
        <mxCell id="nI_rh2UEM4SlCN1rD2Qn-25" value="&lt;span style=&quot;font-size: 12px;&quot;&gt;type 4Bytes&lt;/span&gt;" style="rounded=0;whiteSpace=wrap;html=1;fontSize=16;" vertex="1" parent="1">
          <mxGeometry x="570" y="220" width="150" height="20" as="geometry" />
        </mxCell>
        <mxCell id="nI_rh2UEM4SlCN1rD2Qn-30" value="&lt;span style=&quot;font-size: 12px;&quot;&gt;category 4Bytes&lt;/span&gt;" style="rounded=0;whiteSpace=wrap;html=1;fontSize=16;" vertex="1" parent="1">
          <mxGeometry x="570" y="240" width="150" height="20" as="geometry" />
        </mxCell>
        <mxCell id="nI_rh2UEM4SlCN1rD2Qn-31" value="&lt;span style=&quot;font-size: 12px;&quot;&gt;control type 4Bytes&lt;/span&gt;" style="rounded=0;whiteSpace=wrap;html=1;fontSize=16;" vertex="1" parent="1">
          <mxGeometry x="570" y="260" width="150" height="20" as="geometry" />
        </mxCell>
        <mxCell id="nI_rh2UEM4SlCN1rD2Qn-32" value="&lt;span style=&quot;font-size: 12px;&quot;&gt;timestamp 4Bytes&lt;/span&gt;" style="rounded=0;whiteSpace=wrap;html=1;fontSize=16;" vertex="1" parent="1">
          <mxGeometry x="570" y="280" width="150" height="20" as="geometry" />
        </mxCell>
        <mxCell id="nI_rh2UEM4SlCN1rD2Qn-33" value="&lt;span style=&quot;font-size: 12px;&quot;&gt;name 32Bytes&lt;/span&gt;" style="rounded=0;whiteSpace=wrap;html=1;fontSize=16;" vertex="1" parent="1">
          <mxGeometry x="570" y="300" width="150" height="50" as="geometry" />
        </mxCell>
        <mxCell id="nI_rh2UEM4SlCN1rD2Qn-34" value="&lt;span style=&quot;font-size: 12px;&quot;&gt;speed 4Bytes&lt;/span&gt;" style="rounded=0;whiteSpace=wrap;html=1;fontSize=16;" vertex="1" parent="1">
          <mxGeometry x="570" y="350" width="150" height="20" as="geometry" />
        </mxCell>
        <mxCell id="nI_rh2UEM4SlCN1rD2Qn-35" value="&lt;span style=&quot;font-size: 12px;&quot;&gt;wheel angle 4Bytes&lt;/span&gt;" style="rounded=0;whiteSpace=wrap;html=1;fontSize=16;" vertex="1" parent="1">
          <mxGeometry x="570" y="370" width="150" height="20" as="geometry" />
        </mxCell>
        <mxCell id="nI_rh2UEM4SlCN1rD2Qn-36" value="&lt;span style=&quot;font-size: 12px;&quot;&gt;wheel rot 4Bytes&lt;/span&gt;" style="rounded=0;whiteSpace=wrap;html=1;fontSize=16;" vertex="1" parent="1">
          <mxGeometry x="570" y="390" width="150" height="20" as="geometry" />
        </mxCell>
        <mxCell id="nI_rh2UEM4SlCN1rD2Qn-37" value="&lt;span style=&quot;font-size: 12px;&quot;&gt;boundingbox 24Bytes&lt;/span&gt;" style="rounded=0;whiteSpace=wrap;html=1;fontSize=16;" vertex="1" parent="1">
          <mxGeometry x="570" y="410" width="150" height="40" as="geometry" />
        </mxCell>
        <mxCell id="nI_rh2UEM4SlCN1rD2Qn-38" value="&lt;span style=&quot;font-size: 12px;&quot;&gt;scale mode 4Bytes&lt;/span&gt;" style="rounded=0;whiteSpace=wrap;html=1;fontSize=16;" vertex="1" parent="1">
          <mxGeometry x="570" y="450" width="150" height="20" as="geometry" />
        </mxCell>
        <mxCell id="nI_rh2UEM4SlCN1rD2Qn-39" value="&lt;span style=&quot;font-size: 12px;&quot;&gt;visibility mask 4Bytes&lt;/span&gt;" style="rounded=0;whiteSpace=wrap;html=1;fontSize=16;" vertex="1" parent="1">
          <mxGeometry x="570" y="470" width="150" height="20" as="geometry" />
        </mxCell>
        <mxCell id="nI_rh2UEM4SlCN1rD2Qn-40" value="&lt;span style=&quot;font-size: 12px;&quot;&gt;x 4Bytes&lt;/span&gt;" style="rounded=0;whiteSpace=wrap;html=1;fontSize=16;" vertex="1" parent="1">
          <mxGeometry x="570" y="490" width="150" height="20" as="geometry" />
        </mxCell>
        <mxCell id="nI_rh2UEM4SlCN1rD2Qn-41" value="&lt;span style=&quot;font-size: 12px;&quot;&gt;y 4Bytes&lt;/span&gt;" style="rounded=0;whiteSpace=wrap;html=1;fontSize=16;" vertex="1" parent="1">
          <mxGeometry x="570" y="510" width="150" height="20" as="geometry" />
        </mxCell>
        <mxCell id="nI_rh2UEM4SlCN1rD2Qn-42" value="&lt;span style=&quot;font-size: 12px;&quot;&gt;z 4Bytes&lt;/span&gt;" style="rounded=0;whiteSpace=wrap;html=1;fontSize=16;" vertex="1" parent="1">
          <mxGeometry x="570" y="530" width="150" height="20" as="geometry" />
        </mxCell>
        <mxCell id="nI_rh2UEM4SlCN1rD2Qn-43" value="&lt;span style=&quot;font-size: 12px;&quot;&gt;h 4Bytes&lt;/span&gt;" style="rounded=0;whiteSpace=wrap;html=1;fontSize=16;" vertex="1" parent="1">
          <mxGeometry x="570" y="550" width="150" height="20" as="geometry" />
        </mxCell>
        <mxCell id="nI_rh2UEM4SlCN1rD2Qn-44" value="&lt;span style=&quot;font-size: 12px;&quot;&gt;p 4Bytes&lt;/span&gt;" style="rounded=0;whiteSpace=wrap;html=1;fontSize=16;" vertex="1" parent="1">
          <mxGeometry x="570" y="570" width="150" height="20" as="geometry" />
        </mxCell>
        <mxCell id="nI_rh2UEM4SlCN1rD2Qn-45" value="&lt;span style=&quot;font-size: 12px;&quot;&gt;r 4Bytes&lt;/span&gt;" style="rounded=0;whiteSpace=wrap;html=1;fontSize=16;" vertex="1" parent="1">
          <mxGeometry x="570" y="590" width="150" height="20" as="geometry" />
        </mxCell>
        <mxCell id="nI_rh2UEM4SlCN1rD2Qn-46" value="&lt;span style=&quot;font-size: 12px;&quot;&gt;roadID 4Bytes&lt;/span&gt;" style="rounded=0;whiteSpace=wrap;html=1;fontSize=16;" vertex="1" parent="1">
          <mxGeometry x="570" y="610" width="150" height="20" as="geometry" />
        </mxCell>
        <mxCell id="nI_rh2UEM4SlCN1rD2Qn-47" value="&lt;span style=&quot;font-size: 12px;&quot;&gt;laneID 4Bytes&lt;/span&gt;" style="rounded=0;whiteSpace=wrap;html=1;fontSize=16;" vertex="1" parent="1">
          <mxGeometry x="570" y="630" width="150" height="20" as="geometry" />
        </mxCell>
        <mxCell id="nI_rh2UEM4SlCN1rD2Qn-48" value="&lt;span style=&quot;font-size: 12px;&quot;&gt;offset 4Bytes&lt;/span&gt;" style="rounded=0;whiteSpace=wrap;html=1;fontSize=16;" vertex="1" parent="1">
          <mxGeometry x="570" y="650" width="150" height="20" as="geometry" />
        </mxCell>
        <mxCell id="nI_rh2UEM4SlCN1rD2Qn-49" value="&lt;span style=&quot;font-size: 12px;&quot;&gt;t 4Bytes&lt;/span&gt;" style="rounded=0;whiteSpace=wrap;html=1;fontSize=16;" vertex="1" parent="1">
          <mxGeometry x="570" y="670" width="150" height="20" as="geometry" />
        </mxCell>
        <mxCell id="nI_rh2UEM4SlCN1rD2Qn-50" value="&lt;span style=&quot;font-size: 12px;&quot;&gt;s 4Bytes&lt;/span&gt;" style="rounded=0;whiteSpace=wrap;html=1;fontSize=16;" vertex="1" parent="1">
          <mxGeometry x="570" y="690" width="150" height="20" as="geometry" />
        </mxCell>
        <mxCell id="nI_rh2UEM4SlCN1rD2Qn-12" value="100 Bytes" style="rounded=0;whiteSpace=wrap;html=1;fontSize=16;fillColor=#fff2cc;strokeColor=#d6b656;" vertex="1" parent="1">
          <mxGeometry x="450" y="180" width="120" height="310" as="geometry" />
        </mxCell>
        <mxCell id="nI_rh2UEM4SlCN1rD2Qn-13" value="44 Bytes" style="rounded=0;whiteSpace=wrap;html=1;fontSize=16;fillColor=#d5e8d4;strokeColor=#82b366;" vertex="1" parent="1">
          <mxGeometry x="450" y="490" width="120" height="220" as="geometry" />
        </mxCell>
        <mxCell id="nI_rh2UEM4SlCN1rD2Qn-51" value="&lt;span data-json=&quot;%7B%22type%22%3A%22text%22%2C%22data%22%3A%5B%7B%22type%22%3A1%2C%22style%22%3A%7B%7D%2C%22text%22%3A%22Replay%20Head%22%7D%5D%7D&quot; class=&quot;mm-editor-clipboard&quot;&gt;&lt;b style=&quot;font-size: 40px;&quot;&gt;&lt;font style=&quot;font-size: 40px;&quot;&gt;obj state struct&lt;br&gt;Total : 144 Bytes&lt;br&gt;&lt;/font&gt;&lt;/b&gt;&lt;/span&gt;" style="text;html=1;strokeColor=none;fillColor=none;align=center;verticalAlign=middle;whiteSpace=wrap;rounded=0;" vertex="1" parent="1">
          <mxGeometry x="350" y="90" width="400" height="30" as="geometry" />
        </mxCell>
      </root>
    </mxGraphModel>
  </diagram>
</mxfile>
